<svg xmlns="http://www.w3.org/2000/svg" viewBox="0 0 512 512" xmlns:v="https://vecta.io/nano"><circle cx="256" cy="256" r="256" fill="#ffd93b"/><path d="M512 256c0 141.44-114.64 256-256 256-80.48 0-152.32-37.12-199.28-95.28 43.92 35.52 99.84 56.72 160.72 56.72 141.36 0 256-114.56 256-256 0-60.88-21.2-116.8-56.72-160.72C474.8 103.68 512 175.52 512 256z" fill="#f4c534"/><path d="M336.576 404.16c12.48 3.232 24.832-6.16 24.336-19.04C358.8 330.208 313.504 284.368 256 284.368c-57.616 0-102.896 45.968-104.912 100.928-.464 12.816 11.776 22.24 24.192 19.056 55.136-14.08 108.864-13.792 161.296-.192z" fill="#3e4347"/><path d="M314.88 399.36c.576-2.656.928-5.392.928-8.24 0-21.424-17.344-38.768-38.688-38.768-10.592 0-20.096 4.16-26.992 10.976a39.22 39.22 0 0 0-15.232-3.056c-21.344 0-38.688 17.344-38.688 38.688 0 .24.064.464.08.704 40.256-7.648 79.776-7.6 118.592-.304z" fill="#e24b4b"/><path d="M449.936 350c0-18.24-33.024-74.304-33.024-74.304S383.888 331.76 383.888 350s14.784 33.024 33.024 33.024S449.936 368.24 449.936 350z" fill="#65b1ef"/><path d="M420.432 271.312l-28.592-31.184c-32.88-35.744-92.016-36.784-92.672-36.784l-16.24-.128 11.952-11.056c15.2-14.288 31.328-19.888 47.568-16.64 36 7.024 59.136 55.36 60.048 57.44l17.936 38.352zm-144.4-224.224c65.568 73.744 85.584 77.392 108.16 97.6-21.824-.032-49.824-9.904-71.52-29.488-26.768-25.216-36.88-51.728-36.64-68.112zM89.872 271.312l28.592-31.184c32.88-35.744 92.016-36.784 92.672-36.784l16.24-.128-11.952-11.056c-15.2-14.288-31.328-19.888-47.568-16.64-36 7.024-59.136 55.36-60.048 57.44l-17.936 38.352zm144.4-224.224c-65.568 73.744-85.584 77.392-108.16 97.6 21.824-.032 49.824-9.904 71.52-29.488 26.784-25.216 36.88-51.728 36.64-68.112z" fill="#3e4347"/><path d="M434.736 364.736c-4.624 5.504-11.36 7.76-14.688 4.736-3.488-2.864-2.4-9.744 2.368-15.264 4.64-5.648 11.216-7.76 14.688-4.736 3.488 2.88 2.4 9.76-2.368 15.264z" fill="#fff" opacity=".2"/></svg>