<svg xmlns="http://www.w3.org/2000/svg" viewBox="0 0 512 512" xmlns:v="https://vecta.io/nano"><circle cx="256" cy="256" r="256" fill="#ffd93b"/><path d="M512 256c0 141.44-114.64 256-256 256-80.48 0-152.32-37.12-199.28-95.28 43.92 35.52 99.84 56.72 160.72 56.72 141.36 0 256-114.56 256-256 0-60.88-21.2-116.8-56.72-160.72C474.8 103.68 512 175.52 512 256zm-141.056-91.984c-25.392 27.216-56.976 48.496-92.24 61.376-2.464 8.064-3.792 16.64-3.792 25.536 0 48.16 39.04 87.2 87.2 87.2 48.32 0 87.36-39.04 87.36-87.2-.016-45.328-34.384-82.48-78.528-86.912z" fill="#f4c534"/><path d="M371.36 184.624c-20.24 14.304-42.8 25.28-66.88 32.304-5.872 10-9.472 21.52-9.472 34.016 0 37.104 29.984 67.104 67.104 67.104 37.264 0 67.248-29.984 67.248-67.104-.016-34.08-25.2-61.792-58-66.32z" fill="#fff"/><path d="M424.112 170.832l-158.56 63.552c11.04-7.52 79.84-58.24 119.68-99.696l38.88 36.144zm-27.536 80.576c0 18.992-15.328 34.48-34.496 34.496-18.992 0-34.32-15.488-34.32-34.48 0-19.168 15.328-34.496 34.32-34.496 19.168 0 34.496 15.328 34.496 34.48z" fill="#3e4347"/><ellipse transform="matrix(-.7071 -.7071 .7071 -.7071 472.943 671.8936)" cx="375.625" cy="237.997" rx="9.6" ry="6" fill="#fff"/><path d="M141.072 164.016c25.408 27.216 56.976 48.496 92.24 61.376 2.464 8.064 3.792 16.64 3.792 25.536 0 48.16-39.04 87.2-87.2 87.2-48.32 0-87.36-39.04-87.36-87.2 0-45.328 34.368-82.48 78.528-86.912z" fill="#f4c534"/><path d="M140.64 184.624c20.24 14.304 42.8 25.28 66.88 32.304 5.872 10 9.472 21.52 9.472 34.016 0 37.104-29.984 67.104-67.104 67.104-37.264 0-67.248-29.984-67.248-67.104.016-34.08 25.2-61.792 58-66.32z" fill="#fff"/><path d="M87.904 170.832l158.56 63.552c-11.04-7.52-79.84-58.24-119.68-99.696l-38.88 36.144zm27.52 80.576c0 18.992 15.328 34.48 34.48 34.496 18.992 0 34.32-15.488 34.32-34.48 0-19.168-15.328-34.496-34.32-34.496a34.34 34.34 0 0 0-34.48 34.48z" fill="#3e4347"/><ellipse transform="matrix(-.7071 -.7071 .7071 -.7071 64.5721 502.6307)" cx="136.384" cy="237.942" rx="6" ry="9.6" fill="#fff"/><path d="M303.104 396.704c0 26.08-21.12 47.04-47.04 47.04-26.08 0-47.04-20.96-47.04-47.04 0-25.92 20.96-47.04 47.04-47.04 25.92 0 47.04 21.12 47.04 47.04z" fill="#3e4347"/></svg>