<svg xmlns="http://www.w3.org/2000/svg" viewBox="0 0 512 512" xmlns:v="https://vecta.io/nano"><circle cx="256" cy="256" r="256" fill="#ffd93b"/><path d="M512 256c0 141.44-114.64 256-256 256-80.48 0-152.32-37.12-199.28-95.28 43.92 35.52 99.84 56.72 160.72 56.72 141.36 0 256-114.56 256-256 0-60.88-21.2-116.8-56.72-160.72C474.8 103.68 512 175.52 512 256z" fill="#f4c534"/><path d="M400.176 417.44c-16-12.208-44.48-34.928-88.112-47.28-35.024-10.624-80.176-9.728-112.128.016-41.488 11.76-68.64 32.448-88.128 47.248 15.92-25.136 46.592-50.864 82.656-64 41.392-15.072 84.384-14.08 123.056.016 36.208 13.248 66.752 38.96 82.656 64z" fill="#3e4347"/><circle cx="367.509" cy="214.585" r="98.447" fill="#f4c534"/><path d="M451.744 214.64c-2.592 46.832-42.4 84.768-88.944 84.768s-82.288-37.952-79.696-84.768 42.56-84.912 89.088-84.912 82.16 38.096 79.552 84.912z" fill="#fff"/><path d="M407.376 214.576c.096 22.064-17.872 40.032-39.936 39.936-22.064.096-40.032-17.888-39.936-39.952-.096-22.064 17.872-40.032 39.936-39.936 22.064-.096 40.032 17.888 39.936 39.952z" fill="#3e4347"/><ellipse transform="matrix(-.7071 -.7071 .7071 -.7071 510.8839 611.4763)" cx="382.083" cy="199.931" rx="11.92" ry="7.648" fill="#fff"/><g fill="#f4c534"><path d="M409.664 125.76c-36.544-17.344-81.552-11.088-111.776 19.136s-36.56 75.312-19.248 111.888c52.992-32.928 97.312-75.872 131.024-131.024z"/><circle cx="144.48" cy="214.589" r="98.447"/></g><path d="M60.256 214.64c2.592 46.832 42.4 84.768 88.944 84.768s82.288-37.952 79.696-84.768c-2.592-46.832-42.56-84.912-89.088-84.912-46.56 0-82.16 38.096-79.552 84.912z" fill="#fff"/><path d="M104.624 214.576c-.096 22.064 17.872 40.032 39.936 39.936 22.064.096 40.032-17.888 39.952-39.952.096-22.064-17.872-40.032-39.936-39.936-22.08-.096-40.048 17.888-39.952 39.952z" fill="#3e4347"/><ellipse transform="matrix(-.7071 -.7071 .7071 -.7071 80.3805 433.166)" cx="129.902" cy="199.936" rx="7.648" ry="11.92" fill="#fff"/><path d="M102.336 125.76c36.544-17.344 81.552-11.088 111.776 19.136s36.56 75.312 19.248 111.888c-52.992-32.928-97.312-75.872-131.024-131.024z" fill="#f4c534"/><path d="M278.032 111.632s44.752-10.416 86.496-54.912c0 0-51.504 103.408-86.496 54.912zm-44.064 0s-44.752-10.416-86.496-54.912c0 0 51.504 103.408 86.496 54.912z" fill="#3e4347"/></svg>