<svg xmlns="http://www.w3.org/2000/svg" viewBox="0 0 512 512" xmlns:v="https://vecta.io/nano"><circle cx="256" cy="256" r="256" fill="#ffd93b"/><path d="M512 256c0 141.44-114.64 256-256 256-80.48 0-152.32-37.12-199.28-95.28 43.92 35.52 99.84 56.72 160.72 56.72 141.36 0 256-114.56 256-256 0-60.88-21.2-116.8-56.72-160.72C474.8 103.68 512 175.52 512 256z" fill="#f4c534"/><path d="M431.312 323.28c-18.88 79.36-90.08 138.56-175.36 138.56s-156.48-59.2-175.36-138.72c-1.44-6.08 4.16-11.36 10.08-9.6 111.04 33.12 221.28 33.76 330.56.16 6.08-1.92 11.52 3.52 10.08 9.6z" fill="#3e4347"/><path d="M245.648 394.72c-65.536 0-112.224-19.28-103.136 26.288.048.24.144.464.192.704 30.928 25.072 70.288 40.112 113.248 40.112s82.32-15.056 113.248-40.096c.048-.256.144-.48.192-.72 9.088-45.568-58.192-26.288-123.744-26.288z" fill="#e24b4b"/><path d="M93.232 314.192c9.68 34.72 78.64 61.504 162.4 61.504 83.456 0 152.192-26.592 162.272-61.136-107.344 32.32-215.616 31.664-324.672-.368z" fill="#fff"/><circle cx="362.8" cy="214.608" r="98.448" fill="#f4c534"/><path d="M447.072 214.64c-2.592 46.832-42.4 84.768-88.944 84.768-46.528 0-82.288-37.952-79.696-84.768 2.592-46.832 42.56-84.912 89.088-84.912s82.144 38.096 79.552 84.912z" fill="#fff"/><path d="M402.688 214.576c.096 22.064-17.872 40.032-39.936 39.936-22.064.096-40.048-17.888-39.936-39.952-.096-22.064 17.872-40.032 39.936-39.936 22.064-.096 40.032 17.888 39.936 39.952z" fill="#3e4347"/><ellipse transform="matrix(-.7071 -.7071 .7071 -.7071 502.9126 608.1483)" cx="377.408" cy="199.918" rx="11.92" ry="7.648" fill="#fff"/><circle cx="149.216" cy="214.608" r="98.448" fill="#f4c534"/><path d="M64.944 214.64c2.592 46.832 42.4 84.768 88.944 84.768 46.528 0 82.288-37.952 79.696-84.768-2.592-46.832-42.56-84.912-89.088-84.912-46.544 0-82.144 38.096-79.552 84.912z" fill="#fff"/><path d="M109.312 214.576c-.096 22.064 17.872 40.032 39.936 39.936 22.064.096 40.032-17.888 39.936-39.952.096-22.064-17.872-40.032-39.936-39.936-22.048-.096-40.032 17.888-39.936 39.952z" fill="#3e4347"/><ellipse transform="matrix(-.7071 -.7071 .7071 -.7071 88.3791 436.5053)" cx="134.593" cy="199.949" rx="7.648" ry="11.92" fill="#fff"/><path d="M155.152 72.928s-52.016-7.312-106.624 55.904c0 0 35.312-113.248 106.624-55.904zm201.696 0s52.016-7.312 106.624 55.904c0 0-35.312-113.248-106.624-55.904z" fill="#3e4347"/></svg>