<svg xmlns="http://www.w3.org/2000/svg" viewBox="0 0 512 512" xmlns:v="https://vecta.io/nano"><circle cx="256" cy="256" r="256" fill="#ffd93b"/><path d="M512 256c0 141.44-114.64 256-256 256-80.48 0-152.32-37.12-199.28-95.28 43.92 35.52 99.84 56.72 160.72 56.72 141.36 0 256-114.56 256-256 0-60.88-21.2-116.8-56.72-160.72C474.8 103.68 512 175.52 512 256z" fill="#f4c534"/><path d="M393.952 348.752c14.256 29.712-18.176 80.56-137.968 84.176-119.776-3.664-152.192-54.496-137.968-84.176 13.936-31.536 53.136-30.448 137.968-28.576 84.848-1.856 124-2.992 137.968 28.576z" fill="#3e4347"/><path d="M331.856 374.704c20.576-2.864 37.312-17.504 44.48-25.6-15.456-15.328-56.112-11.776-120.416-11.408-41.792-.096-72.96-2.016-94.896 1.392-13.92 2.048-21.168 5.92-25.2 9.776 7.008 7.984 23.936 23.056 44.896 25.936.064.032-26.144-2-50.896-13.584-2.384 21.456 40.256 53.472 126.176 54.416h.192c85.744-.912 128.32-32.88 126-54.336-24.576 11.392-50.4 13.424-50.336 13.408z" fill="#fff"/><path d="M433.056 236.512c-14.048-20.032-38.544-33.264-66.512-33.264-36.32 0-66.8 22.272-76.128 52.752-2.368-5.984-3.472-12.256-3.472-18.928 0-34.928 32.704-63.184 73.056-63.184 40.08 0 72.64 27.968 73.056 62.624zm-354.112 0c14.048-20.032 38.544-33.264 66.512-33.264 36.32 0 66.8 22.272 76.128 52.752 2.368-5.984 3.472-12.256 3.472-18.928 0-34.928-32.704-63.184-73.056-63.184-40.08 0-72.64 27.968-73.056 62.624z" fill="#3e4347"/></svg>