<svg xmlns="http://www.w3.org/2000/svg" xmlns:xlink="http://www.w3.org/1999/xlink" viewBox="0 0 512.008 512.008" xmlns:v="https://vecta.io/nano"><circle cx="256.004" cy="246.624" r="246.624" fill="#ffd93b"/><path d="M502.628 246.624c0 136.256-110.432 246.624-246.624 246.624-77.536 0-146.736-35.76-191.968-91.792 42.304 34.224 96.176 54.64 154.832 54.64 136.176 0 246.624-110.368 246.624-246.624 0-58.64-20.416-112.528-54.64-154.832 55.936 45.248 91.776 114.448 91.776 191.984z" fill="#f4c534"/><path d="M361.604 472.448c-5.632 26.4-32.368 46.224-61.504 37.456-29.136-8.48-59.04-8.32-88.624 0-27.632 8-55.088-9.712-61.04-37.616C129.62 372.016 175.908 256.8 255.86 256.8c81.728 0 126.208 116.848 105.744 215.648z" fill="#ffd93b"/><path d="M340.34 468.048c-3.248 15.408-18.8 25.552-33.952 21.088-33.68-9.728-67.216-9.728-100.768 0-15.152 4.464-30.704-5.68-33.952-21.232-18.528-89.536 21.904-189.344 84.256-189.344 62.912 0 102.816 100.208 84.416 189.488z" fill="#3e4347"/><path d="M317.284 473.136c7.28-19.2 5.984-41.664-7.664-60.784-9.216-13.104-26.112-18-40.992-12.256-10.032 3.872-21.168 5.088-31.872 4.224-41.28-3.36-54.848 35.856-42.704 68.816 40.608-12.32 81.696-11.712 123.232 0z" fill="#e24b4b"/><path d="M256.004 447.44c-36.752 0-68.384 10.112-82.976 24.704 4.96 13.056 18.896 21.04 32.592 16.992 33.536-9.728 67.088-9.728 100.768 0 13.728 4.048 27.68-3.952 32.624-16.96-14.56-14.624-46.224-24.736-83.008-24.736zM137.236 238.304c-43.776-4.464-70.592-35.44-59.488-79.216C88.996 115.312 133.7 79.856 177.78 79.856c43.936 0 61.392 34.368 64.48 79.52 3.696 55.344-54.32 84.176-105.024 78.928z" fill="#fff"/><use xlink:href="#B" fill="#3e4347"/><g fill="#fff"><ellipse transform="matrix(-.7071 -.7071 .7071 -.7071 215.4323 379.1729)" cx="186.245" cy="144.969" rx="11.744" ry="7.152"/><path d="M366.148 239.744c44.368-4.544 75.312-36.096 70.048-80.656-5.424-44.56-45.392-80.672-89.472-80.672-43.936 0-65.968 34.992-75.072 80.976-11.088 56.336 43.072 85.696 94.496 80.352z"/></g><use xlink:href="#B" x="169.856" fill="#3e4347"/><ellipse transform="matrix(-.7071 -.7071 .7071 -.7071 505.3508 499.2974)" cx="356.083" cy="144.987" rx="11.744" ry="7.152" fill="#fff"/><defs ><path id="B" d="M211.62 159.328c0 21.856-17.68 39.792-39.536 39.792-21.984-.128-39.664-17.936-39.664-39.792s17.68-39.664 39.664-39.664c21.856 0 39.536 17.808 39.536 39.664z"/></defs></svg>