<svg xmlns="http://www.w3.org/2000/svg" viewBox="0 0 512.001 512.001" xmlns:v="https://vecta.io/nano"><circle cx="256" cy="265.905" r="246.096" fill="#ffd93b"/><path d="M502.096 265.905C502.096 401.873 391.888 512 256 512c-77.36 0-146.432-35.68-191.568-91.6 42.224 34.144 95.984 54.528 154.496 54.528 135.888 0 246.096-110.128 246.096-246.096 0-58.528-20.384-112.272-54.528-154.496 55.84 45.152 91.6 114.208 91.6 191.568z" fill="#f4c534"/><path d="M182.704 19.857c11.632 29.696-27.36 97.376-27.36 97.376S80.752 94.017 69.12 64.337C62.848 48.305 70.8 30.113 86.832 23.84c12.96-5.072 27.328-.864 35.648 9.408-.88-13.2 6.768-26.016 19.728-31.088 16.08-6.304 34.224 1.664 40.496 17.696zM498.288 97.2c-17.12 35.888-112 58.08-112 58.08s-42.448-87.7-25.312-123.6c9.248-19.376 32.576-27.632 51.968-18.384 15.68 7.488 24.096 24.144 21.824 40.496 11.28-12.048 29.456-16.016 45.136-8.544 19.44 9.264 27.632 32.576 18.384 51.952z" fill="#e24b4b"/><path d="M268.56 230.72c0 55.952-45.264 101.216-101.216 101.216-55.792 0-101.216-45.264-101.216-101.216 0-55.792 45.424-101.056 101.216-101.056 55.952.016 101.216 45.264 101.216 101.056z" fill="#f4c534"/><path d="M250.432 230.737c-5.744 46.464-47.52 84.048-93.456 84.048-45.792 0-78.448-37.584-72.704-84.048 5.728-46.336 47.648-83.904 93.44-83.904 45.936 0 78.448 37.584 72.72 83.904z" fill="#fff"/><circle cx="173.616" cy="196.161" r="34.672" fill="#3e4347"/><ellipse transform="matrix(-.7071 -.7071 .7071 -.7071 186.961 445.4086)" cx="185.728" cy="183.983" rx="10.736" ry="7.568" fill="#fff"/><path d="M445.872 244.593c0 45.376-36.704 82.08-82.08 82.08-45.232 0-82.08-36.704-82.08-82.08 0-45.248 36.832-81.936 82.08-81.936 45.376-.016 82.08 36.688 82.08 81.936z" fill="#f4c534"/><path d="M431.152 244.61c3.824 36.8-23.216 66.544-60.464 66.544-37.136 0-70.464-29.76-74.288-66.544-3.808-36.688 23.344-66.448 60.48-66.448 37.264 0 70.464 29.76 74.272 66.448z" fill="#fff"/><circle cx="351.808" cy="224.481" r="34.672" fill="#3e4347"/><ellipse transform="matrix(-.7071 -.7071 .7071 -.7071 471.1412 619.679)" cx="363.91" cy="212.263" rx="10.736" ry="7.568" fill="#fff"/><path d="M98.112 349.73c12.208 18.528 24.464 31.2 39.744 44.464 31.696 26.704 73.648 42.288 117.872 42.816 46.464-.64 86.96-16.352 118.416-42.832 15.104-13.104 27.76-26.288 39.744-44.448-8.88 19.536-19.152 36.192-33.872 50.816-34.96 34.272-74.096 50.72-123.744 51.84-51.104-1.168-89.984-18.256-124.272-51.856-14.816-14.72-25.104-31.52-33.888-50.8z" fill="#3e4347"/></svg>